PathFileType	4	(X/Y/Z)	Patient4_TMGait_0pt5_01_left_05.trc.trc
DataRate	CameraRate	NumFrames	NumMarkers	Units	OrigDataRate	OrigDataStartFrame	OrigNumFrames
71.065989847716	71.065989847716	4	33	mm	71.065989847716	124	       141
Frame#	Time	L.ASIS			Sacral			L.Shoulder			Chest			R.Shoulder			Neck			R.ASIS			R.Thigh.Superior			R.Thigh.Lateral			R.Thigh.Inferior			R.Patella			L.Thigh.Superior			L.Thigh.Lateral			L.Thigh.Inferior			L.Patella			L.Shank.Superior			L.Shank.Lateral			L.Shank.Inferior			R.Shank.Superior			R.Shank.Lateral			R.Shank.Inferior			R.Heel			R.Midfoot.Superior			R.Midfoot.Lateral			R.Toe			L.Heel			L.Midfoot.Lateral			L.Midfoot.Superior			L.Toe			L.Elbow			L.Wrist			R.Elbow			R.Wrist			
		X1	Y1	Z1	X2	Y2	Z2	X3	Y3	Z3	X4	Y4	Z4	X5	Y5	Z5	X6	Y6	Z6	X7	Y7	Z7	X8	Y8	Z8	X9	Y9	Z9	X10	Y10	Z10	X11	Y11	Z11	X12	Y12	Z12	X13	Y13	Z13	X14	Y14	Z14	X15	Y15	Z15	X16	Y16	Z16	X17	Y17	Z17	X18	Y18	Z18	X19	Y19	Z19	X20	Y20	Z20	X21	Y21	Z21	X22	Y22	Z22	X23	Y23	Z23	X24	Y24	Z24	X25	Y25	Z25	X26	Y26	Z26	X27	Y27	Z27	X28	Y28	Z28	X29	Y29	Z29	X30	Y30	Z30	X31	Y31	Z31	X32	Y32	Z32	X33	Y33	Z33	

124	8.300785714286	695.834949483153	959.011756113876	366.730068243047	485.549802091497	996.701012738167	531.207181181322	634.341542474095	1438.653840392434	367.420667615189	746.305276790607	1360.729998976934	518.388356201990	669.881255343986	1421.152437711242	701.333439384043	638.597931294980	1489.899421161806	521.238952710443	715.216939329461	934.487483696674	642.202976512759	717.852119102053	723.404502732658	611.570034656784	614.514842373255	627.004725792470	668.866412709279	677.887140680138	563.145054666772	589.564931998129	658.295550355652	475.242994381316	590.966059975918	770.032603562776	769.355491672573	392.331271035688	718.955132603301	642.678129348672	312.566363919820	820.001465209010	581.330865278772	373.187997699734	844.755781623055	514.129831930204	370.395256753412	827.346633105024	442.099766182404	360.192019700620	757.829127480958	315.578006012680	306.520649146328	839.086009777841	213.262089400430	363.337876644398	617.572558080954	391.307806839402	595.197336874825	530.540913371794	298.901220599945	655.117192780556	556.162484731452	200.466396678166	588.232813835252	399.693628528333	45.429328844191	557.907744199820	574.533226328884	96.692811317301	588.660305898815	485.767707347940	36.363155945849	628.110490963037	693.412509167053	39.137132547951	609.940466381433	744.640729676809	40.124526767261	395.888302416959	822.557751794114	40.550393230645	319.305655044009	897.189787809016	111.883826872412	343.711400032506	1029.573792170804	73.718514905763	324.477440162492	506.142940878866	1112.888071938542	253.889008600362	473.711121244109	855.434247892136	244.947824691494	784.293617375106	1097.204284912756	803.161154346257	1031.108526437272	1135.562793503418	762.315507108436	
125	8.314857142857	696.836657212515	957.064922487442	364.983132730901	485.296712236644	994.960781629535	527.831676655143	634.059939659201	1436.573118470035	363.835587037562	745.356924320209	1359.453493846940	515.729104099362	667.657013406848	1420.259122737051	698.046410706992	637.223699229767	1488.306834538967	517.425948207950	714.567858374964	932.950915694763	640.512231113060	716.690412481659	721.480828944931	609.743262591922	612.725329335091	625.573254285841	666.888554977227	675.587316677756	561.300960794874	587.419540675818	655.286206542692	473.151413198208	588.566257353670	771.345364871295	767.490750658138	392.469631807651	720.834623642101	641.002112768295	312.374975966220	821.153638523348	579.785978540315	374.412132890631	844.830679464904	511.242871442867	371.990229372347	826.302402348205	438.654316534717	361.475249455501	754.288393817593	313.557381418110	307.452201800912	832.474007344889	209.494195912175	365.475074300232	613.733119090591	389.593124046001	593.185497355783	526.264054231275	298.040591643842	653.861441097161	550.278099557478	199.342798420598	586.961729211122	392.570438706679	44.909428794665	557.683546293827	567.205501048442	96.433319341537	588.191848323038	478.643379726487	36.204814343606	628.007795370145	686.381527596868	39.134595611669	609.999964419034	733.443449946277	38.871243935659	397.082082443666	811.858136066330	38.288893578130	320.897916355986	888.078710403715	107.358424771177	346.809561773376	1019.871591766918	66.044131964529	328.013662731681	507.333487889188	1109.859802987184	251.034144668767	475.741591334829	852.154679144231	242.795221704743	781.814531556146	1096.222153957950	801.143805619225	1028.700723729381	1133.688586205144	759.375739978148	
126	8.328928571429	697.823863421100	955.222687440230	363.159389191318	485.052597327383	993.302452000676	524.424136365760	633.949222814197	1434.466162997304	360.065951776411	744.551647643913	1358.222862223077	512.945814943703	665.558420004416	1419.545971094798	694.570286732358	636.006656532344	1486.804772035608	513.411374411572	714.016527381226	931.443024771967	638.695261488962	715.818987075859	719.615930364341	607.656374246128	611.383802241412	624.091460123104	664.709095965841	673.776377290361	559.453328403892	585.047317153944	652.839714844495	470.919228598411	585.993038037474	772.655686052032	765.730341940785	392.378045247521	722.444367025845	639.498901175421	312.107538633837	822.151626075831	578.377494401882	375.410277169241	844.657053926978	508.582724903061	373.455171235342	825.126584277030	435.492327039034	362.564161232456	750.916257182742	311.767154024776	308.054855581620	826.110469904026	206.159305934797	367.285667646237	610.274125492967	387.804616884129	590.992859964356	522.297669963733	297.229569573067	652.485108191867	544.559623827337	198.246833419005	585.618344526182	385.443953176582	44.551675206685	557.471070378986	559.962818409341	96.218978612322	587.722491809435	471.549147378880	36.093358741636	627.891634508603	679.415333899313	39.076496070139	610.053460520374	722.800742557259	37.884063374590	397.935047988481	801.658496265267	36.512734385247	322.094033984990	879.214108452006	103.537199424554	349.477821791072	1010.493589201783	59.516731210403	331.029379774061	509.620624795287	1106.398098778642	247.835284504601	479.254959256536	848.378305717346	240.196807434736	778.770889237956	1095.135757505055	799.170862000619	1025.981276696886	1130.676864529316	756.589722289993	
127	8.343000000000	698.743152939822	953.597462829039	361.221617201456	484.807231981487	991.806897222728	521.012011166231	633.978134012216	1432.422553526559	356.149874849537	743.885104400605	1357.109037783612	510.041944451476	663.632684682257	1419.080805799278	690.926071549066	634.949613514751	1485.469358730872	509.223558764331	713.539191785037	930.042315043552	636.727916806209	715.211340797048	717.898926460725	605.329570818133	610.475082074911	622.637563810839	662.345572847416	672.489743202186	557.678827401264	582.514610405699	651.026470873599	468.604904462393	583.352867262167	773.932412304172	764.210922797973	391.959406966616	723.768347050739	638.246680731134	311.702725653044	822.983608611783	577.180315018552	376.072404535125	844.273378588502	506.275669255300	374.681791813852	823.877263934144	432.738499219423	363.404719241432	747.830485466300	310.296297738241	308.287603103577	820.149501277758	203.380903736296	368.723776965786	607.236985030326	386.014939605214	588.694437916362	518.637252551113	296.569604755945	651.020508435980	539.032940366737	197.269971737960	584.259680101257	378.326042175385	44.504656116699	557.283593945812	552.848486426001	96.084703792033	587.279087566208	464.489488435725	36.101498570686	627.766561940861	672.503164749406	38.953819624953	610.094792565737	712.968442292222	37.192331381347	398.467069982073	792.190489394654	35.262946551705	322.895046592591	870.786947343099	100.557833917823	351.625409598875	1001.649100758513	54.378273862849	333.409794296991	512.985322219889	1102.628019239999	244.335199974778	484.298262224771	844.240838506927	237.174539796730	775.078659494024	1093.991979381128	797.205230167407	1022.817357713754	1126.474889702644	753.907252966617	
